<?xml version="1.0" encoding="utf-8"?>
<!-- Generator: Adobe Illustrator 19.2.1, SVG Export Plug-In . SVG Version: 6.00 Build 0)  -->
<svg version="1.1" id="Capa_1" xmlns="http://www.w3.org/2000/svg" xmlns:xlink="http://www.w3.org/1999/xlink" x="0px" y="0px"
	 viewBox="0 0 400 100" style="enable-background:new 0 0 400 100;" xml:space="preserve">
<style type="text/css">
	.st0{fill:#1464C3;}
	.st1{fill:none;stroke:#1464C3;stroke-width:5;stroke-miterlimit:10;}
</style>
<g>
	<path class="st0" d="M20.8,70.6V34.4h28.4v8H30.9v20.4h19v8L20.8,70.6L20.8,70.6z M30.2,56v-7.7H47V56H30.2z"/>
	<path class="st0" d="M62.9,70.6L51.3,42.5h10.1L70.6,66h-5.1l9.7-23.5h9.3L73,70.6H62.9z"/>
	<path class="st0" d="M94.9,71.1c-2.2,0-4.2-0.4-5.7-1.1c-1.6-0.7-2.8-1.8-3.5-3.1c-0.8-1.3-1.2-2.8-1.2-4.4c0-1.8,0.5-3.2,1.3-4.4
		c0.9-1.3,2.2-2.2,4.1-2.9c1.9-0.6,4.2-1,7.1-1h6.7v5.1h-5.3c-1.6,0-2.7,0.3-3.3,0.7c-0.6,0.6-0.9,1.2-0.9,2s0.4,1.6,1,2
		c0.6,0.6,1.6,0.7,2.7,0.7s2-0.3,3-0.8c0.9-0.6,1.6-1.4,1.9-2.5L104,65c-0.6,1.9-1.6,3.4-3.1,4.3C99.3,70.5,97.4,71.1,94.9,71.1z
		 M103.2,70.6v-5.3l-0.6-1.3v-9.6c0-1.6-0.5-2.8-1.4-3.6s-2.5-1.3-4.5-1.3c-1.4,0-2.7,0.2-4.1,0.6c-1.4,0.5-2.6,1-3.5,1.8l-3.3-6.7
		c1.6-1,3.5-1.9,5.7-2.4c2.2-0.6,4.4-0.8,6.7-0.8c4.5,0,8,1,10.6,3.1c2.5,2.1,3.8,5.4,3.8,9.8v15.6h-9.4V70.6z"/>
	<path class="st0" d="M118.6,70.6V32.1h9.8v38.5H118.6z"/>
	<path class="st0" d="M146.6,71.1c-2.3,0-4.3-0.5-6.1-1.4s-3.2-2.3-4.3-4.3c-1-1.9-1.6-4.3-1.6-7.3V42.4h9.8v14.1
		c0,2.2,0.4,3.7,1.2,4.6c0.8,0.9,1.9,1.4,3.4,1.4c0.9,0,1.9-0.2,2.7-0.6c0.8-0.5,1.4-1.2,1.9-2.1c0.5-1,0.7-2.2,0.7-3.8V42.5h9.8
		v28.1h-9.3v-8l1.9,2.2c-0.9,2-2.4,3.6-4.2,4.6C150.8,70.5,148.7,71.1,146.6,71.1z"/>
	<path class="st0" d="M179.5,71.1c-2.2,0-4.2-0.4-5.7-1.1s-2.8-1.8-3.5-3.1c-0.8-1.3-1.2-2.8-1.2-4.4c0-1.8,0.5-3.2,1.3-4.4
		c0.9-1.3,2.2-2.2,4.1-2.9c1.9-0.6,4.2-1,7.1-1h6.7v5.1H183c-1.6,0-2.7,0.3-3.3,0.7c-0.6,0.6-0.9,1.2-0.9,2s0.4,1.6,1,2
		c0.6,0.6,1.6,0.7,2.7,0.7c1.1,0,2-0.3,3-0.8c0.9-0.6,1.6-1.4,1.9-2.5l1.4,3.6c-0.6,1.9-1.6,3.4-3.1,4.3
		C184,70.5,182,71.1,179.5,71.1z M187.8,70.6v-5.3l-0.6-1.3v-9.6c0-1.6-0.5-2.8-1.4-3.6s-2.5-1.3-4.5-1.3c-1.4,0-2.7,0.2-4.1,0.6
		c-1.4,0.5-2.6,1-3.5,1.8l-3.3-6.7c1.6-1,3.5-1.9,5.7-2.4s4.4-0.8,6.7-0.8c4.5,0,8,1,10.6,3.1c2.5,2.1,3.8,5.4,3.8,9.8v15.6h-9.4
		V70.6z"/>
	<path class="st0" d="M217.9,71.1c-3.1,0-5.9-0.6-8.3-1.9c-2.4-1.2-4.3-3-5.7-5.2s-2-4.7-2-7.5c0-2.9,0.6-5.4,2-7.5
		c1.4-2.2,3.3-3.9,5.7-5.1c2.4-1.2,5.2-1.9,8.3-1.9s5.9,0.6,8.2,2s4,3.2,4.9,5.7l-7.6,3.9c-0.6-1.3-1.5-2.3-2.4-2.9
		c-0.9-0.6-2-0.9-3.1-0.9s-2.2,0.3-3.1,0.7c-0.9,0.6-1.7,1.3-2.2,2.2c-0.6,1-0.8,2.2-0.8,3.6c0,1.5,0.3,2.7,0.8,3.7
		c0.6,1,1.3,1.8,2.2,2.3c0.9,0.6,1.9,0.7,3.1,0.7c1.1,0,2.2-0.3,3.1-0.9c0.9-0.6,1.8-1.6,2.4-2.9l7.6,3.9c-0.9,2.5-2.6,4.3-4.9,5.7
		S221.1,71.1,217.9,71.1z"/>
	<path class="st0" d="M239.6,39.4c-1.8,0-3.2-0.5-4.3-1.5s-1.7-2.2-1.7-3.7s0.6-2.7,1.7-3.7c1.1-1,2.6-1.5,4.3-1.5
		c1.8,0,3.2,0.5,4.3,1.4s1.7,2.1,1.7,3.6c0,1.6-0.6,2.9-1.7,3.9C242.9,38.9,241.4,39.4,239.6,39.4z M234.7,70.6V42.5h9.8v28.1H234.7
		z"/>
	<path class="st0" d="M265,71.1c-3.1,0-5.8-0.6-8.1-1.9c-2.4-1.2-4.3-3-5.6-5.2c-1.4-2.2-2-4.7-2-7.5c0-2.9,0.6-5.4,2-7.5
		c1.4-2.2,3.2-3.9,5.6-5.1c2.4-1.2,5.1-1.9,8.1-1.9c3.1,0,5.8,0.6,8.2,1.9c2.4,1.2,4.3,3,5.6,5.1c1.4,2.2,2,4.7,2,7.5
		c0,2.9-0.6,5.4-2,7.5c-1.4,2.2-3.2,3.9-5.6,5.2C270.9,70.5,268.1,71.1,265,71.1z M265,63.2c1.1,0,2.1-0.3,3.1-0.7
		c0.9-0.5,1.6-1.3,2.1-2.3c0.6-1,0.7-2.2,0.7-3.6s-0.3-2.6-0.7-3.6c-0.6-1-1.2-1.8-2.1-2.2c-0.9-0.6-1.9-0.7-3.1-0.7
		c-1.1,0-2.1,0.3-3,0.7c-0.9,0.6-1.6,1.3-2.1,2.2c-0.6,1-0.8,2.2-0.8,3.6s0.3,2.6,0.8,3.6c0.6,1,1.2,1.8,2.1,2.3
		C263,63.1,263.9,63.2,265,63.2z"/>
	<path class="st0" d="M285.4,70.6V42.5h9.3v8l-1.9-2.3c1.1-2,2.5-3.6,4.4-4.6s4-1.6,6.3-1.6c2.2,0,4.2,0.5,5.9,1.3
		c1.8,0.9,3.1,2.2,4.2,4.1c1,1.9,1.6,4.2,1.6,7.1v16.1h-9.8V56.1c0-2-0.4-3.4-1.2-4.3c-0.8-0.9-1.9-1.4-3.4-1.4
		c-1,0-1.9,0.3-2.9,0.7c-0.8,0.5-1.6,1.2-2,2.1c-0.5,0.9-0.7,2.2-0.7,3.8v13.6C295.2,70.6,285.4,70.6,285.4,70.6z"/>
	<path class="st0" d="M336.6,71.1c-3.3,0-6.2-0.6-8.7-1.9s-4.3-3-5.7-5.2c-1.4-2.2-2-4.7-2-7.5s0.6-5.3,2-7.5
		c1.3-2.2,3.1-3.9,5.6-5.1c2.3-1.2,5-1.9,8-1.9c2.8,0,5.3,0.6,7.6,1.7c2.3,1.1,4.1,2.8,5.5,4.9c1.4,2.2,2,4.8,2,8
		c0,0.4,0,0.7-0.1,1.2c0,0.5-0.1,0.8-0.1,1.2h-22.2v-5.2h17l-3.7,1.5c0-1.3-0.2-2.4-0.7-3.3c-0.5-0.9-1.2-1.7-2-2.2
		c-0.8-0.6-1.9-0.7-3.1-0.7s-2.2,0.3-3.1,0.7s-1.6,1.3-2,2.2c-0.5,0.9-0.7,2-0.7,3.3v1.5c0,1.4,0.3,2.6,0.8,3.6
		c0.6,1,1.4,1.8,2.5,2.3s2.3,0.8,3.8,0.8c1.4,0,2.6-0.2,3.5-0.6c1-0.4,1.9-1,3-1.9l5.2,5.4c-1.4,1.5-3,2.6-5,3.4
		S339.3,71.1,336.6,71.1z"/>
	<path class="st0" d="M365.3,71.1c-2.4,0-4.7-0.3-6.9-0.8c-2.2-0.6-4.1-1.2-5.5-2l3-6.8c1.3,0.8,2.9,1.4,4.6,1.9
		c1.8,0.5,3.5,0.7,5.2,0.7s2.8-0.2,3.4-0.6c0.6-0.4,0.9-0.8,0.9-1.4s-0.3-0.9-0.9-1.2s-1.4-0.5-2.4-0.6s-2-0.3-3.2-0.5
		s-2.3-0.4-3.5-0.7s-2.3-0.7-3.2-1.4c-1-0.6-1.8-1.4-2.3-2.5c-0.6-1-0.9-2.3-0.9-4c0-1.8,0.6-3.4,1.6-4.8c1-1.4,2.6-2.5,4.6-3.3
		s4.5-1.2,7.5-1.2c1.9,0,4,0.2,6,0.6c2,0.4,3.7,1,5.1,1.8l-3,6.7c-1.4-0.8-2.8-1.3-4.2-1.7c-1.4-0.3-2.7-0.5-4-0.5
		c-1.7,0-2.9,0.2-3.5,0.6c-0.6,0.4-1,0.8-1,1.4s0.3,1,0.9,1.3s1.4,0.6,2.3,0.6c1,0.2,2,0.3,3.2,0.5s2.3,0.4,3.5,0.7
		c1.2,0.4,2.3,0.7,3.2,1.4c1,0.6,1.8,1.4,2.3,2.4c0.6,1,0.9,2.3,0.9,3.9c0,1.8-0.6,3.2-1.6,4.6s-2.6,2.5-4.6,3.3
		C370.9,70.6,368.4,71.1,365.3,71.1z"/>
</g>
<rect class="st1" width="400" height="100"/>
</svg>
