<?xml version="1.0" standalone="no"?>
<!DOCTYPE svg PUBLIC "-//W3C//DTD SVG 1.1//EN" "http://www.w3.org/Graphics/SVG/1.1/DTD/svg11.dtd" >
<svg xmlns="http://www.w3.org/2000/svg">
<metadata>Generated by IcoMoon</metadata>
<defs>
<font id="icomoon" horiz-adv-x="1024">
<font-face units-per-em="1024" ascent="960" descent="-64" />
<missing-glyph horiz-adv-x="1024" />
<glyph unicode="&#x20;" horiz-adv-x="512" d="" />
<glyph unicode="&#xe900;" glyph-name="document-arrow-up" d="M785.067-21.333h-546.133c-42.667 0-81.067 34.133-81.067 81.067v733.867c0 42.667 34.133 81.067 81.067 81.067h209.067c110.933 0 217.6-42.667 294.4-123.733 76.8-76.8 123.733-183.467 123.733-294.4v-401.067c0-42.667-38.4-76.8-81.067-76.8zM238.933 810.667c-8.533 0-12.8-8.533-12.8-17.067v-738.133c0-8.533 8.533-17.067 17.067-17.067h546.133c8.533 0 17.067 8.533 17.067 17.067v384c0 29.867-12.8 59.733-34.133 81.067-25.6 21.333-55.467 34.133-85.333 34.133h-64c-21.333 0-42.667 8.533-55.467 21.333-17.067 17.067-21.333 34.133-21.333 55.467v68.267c0 29.867-12.8 59.733-34.133 81.067-21.333 17.067-51.2 29.867-81.067 29.867h-192zM588.8 780.8c12.8-25.6 21.333-55.467 21.333-85.333v-64c0-4.267 0-8.533 4.267-12.8s8.533-4.267 12.8-4.267h64c29.867 0 59.733-8.533 85.333-21.333-17.067 38.4-42.667 76.8-76.8 110.933s-72.533 59.733-110.933 76.8zM512 170.667c-17.067 0-34.133 12.8-34.133 34.133v179.2l-72.533-72.533c-12.8-12.8-34.133-12.8-46.933 0s-12.8 34.133 0 46.933l128 128c4.267 4.267 8.533 4.267 8.533 8.533 8.533 4.267 17.067 4.267 25.6 0 4.267 0 8.533-4.267 8.533-8.533l128-128c12.8-12.8 12.8-34.133 0-46.933s-34.133-12.8-46.933 0l-72.533 72.533v-179.2c8.533-21.333-8.533-34.133-25.6-34.133z" />
<glyph unicode="&#xe901;" glyph-name="arrow-right-start-on-rectangle" d="M576 8.534h-256c-34.133 0-68.267 12.8-89.6 38.4-25.6 25.6-38.4 55.467-38.4 89.6v576c0 34.133 12.8 68.267 38.4 89.6 25.6 25.6 55.467 38.4 89.6 38.4h256c34.133 0 68.267-12.8 89.6-38.4 25.6-25.6 38.4-55.467 38.4-89.6v-157.867c0-17.067-12.8-34.133-34.133-34.133s-29.867 17.067-29.867 34.133v157.867c0 17.067-8.533 34.133-17.067 46.933s-29.867 17.067-46.933 17.067h-256c-17.067 0-34.133-8.533-46.933-17.067-8.533-12.8-17.067-25.6-17.067-46.933v-576c0-17.067 8.533-34.133 17.067-46.933 12.8-12.8 29.867-17.067 46.933-17.067h256c17.067 0 34.133 8.533 46.933 17.067s17.067 29.867 17.067 46.933v162.133c0 17.067 12.8 34.133 34.133 34.133s34.133-12.8 34.133-34.133v-162.133c0-34.133-12.8-68.267-38.4-89.6s-59.733-38.4-93.867-38.4zM802.133 264.534c-8.533 0-17.067 4.267-21.333 8.533-12.8 12.8-12.8 34.133 0 46.933l72.533 72.533h-469.333c-17.067 0-34.133 12.8-34.133 34.133s12.8 34.133 34.133 34.133h465.067l-72.533 72.533c-12.8 12.8-12.8 34.133 0 46.933s34.133 12.8 46.933 0l128-128c4.267-4.267 4.267-8.533 8.533-8.533 0-4.267 4.267-8.533 4.267-12.8s0-8.533-4.267-12.8c0-4.267-4.267-8.533-8.533-8.533l-128-128c-8.533-12.8-17.067-17.067-21.333-17.067z" />
<glyph unicode="&#xe902;" glyph-name="bars-3" d="M866.133 170.667h-704c-21.333 0-34.133 12.8-34.133 29.867s12.8 34.133 34.133 34.133h704c17.067 0 34.133-12.8 34.133-34.133s-17.067-29.867-34.133-29.867zM866.133 392.534h-704c-21.333 0-34.133 17.067-34.133 34.133s12.8 34.133 34.133 34.133h704c17.067 0 34.133-12.8 34.133-34.133s-17.067-34.133-34.133-34.133zM866.133 618.667h-704c-21.333 0-34.133 12.8-34.133 29.867s12.8 34.133 34.133 34.133h704c17.067 0 29.867-12.8 29.867-34.133s-12.8-29.867-29.867-29.867z" />
<glyph unicode="&#xe903;" glyph-name="bell" d="M512 12.8c-25.6 0-51.2 4.267-72.533 17.067s-42.667 29.867-55.467 46.933c-12.8 21.333-25.6 42.667-29.867 68.267 0 12.8-4.267 25.6 0 38.4-68.267 12.8-140.8 29.867-204.8 51.2-12.8 4.267-21.333 12.8-21.333 21.333-4.267 8.533 0 21.333 8.533 29.867 59.733 64 89.6 149.333 89.6 234.667v34.133c0 76.8 29.867 149.333 85.333 204.8s128 85.333 204.8 85.333c76.8 0 149.333-29.867 204.8-85.333s85.333-128 85.333-204.8v-34.133c0-85.333 29.867-170.667 89.6-234.667 8.533-8.533 8.533-17.067 8.533-29.867-4.267-8.533-8.533-17.067-21.333-21.333-68.267-25.6-136.533-42.667-204.8-51.2 0-12.8 0-25.6 0-38.4-4.267-25.6-12.8-46.933-29.867-68.267-12.8-21.333-34.133-38.4-55.467-46.933-29.867-12.8-55.467-17.067-81.067-17.067zM418.133 174.934c0-8.533 0-12.8 0-21.333 4.267-12.8 8.533-29.867 17.067-42.667s21.333-21.333 34.133-29.867c25.6-12.8 59.733-12.8 85.333 0 12.8 8.533 25.6 17.067 34.133 29.867s12.8 25.6 17.067 42.667c0 4.267 0 12.8 0 21.333-59.733-4.267-128-4.267-187.733 0zM392.533 243.2c76.8-8.533 157.867-8.533 234.667 0 0 0 0 0 0 0 64 8.533 123.733 21.333 183.467 38.4-51.2 68.267-76.8 153.6-76.8 243.2v29.867c0 59.733-21.333 115.2-64 157.867s-98.133 64-157.867 64c-59.733 0-115.2-21.333-157.867-64s-64-98.133-64-157.867v-34.133c0-85.333-25.6-170.667-76.8-243.2 55.467-17.067 119.467-29.867 179.2-34.133 0 0 0 0 0 0z" />
<glyph unicode="&#xe904;" glyph-name="chat-bubble-oval-left" d="M256 8.534c-17.067 0-34.133 0-51.2 4.267-12.8 0-21.333 8.533-25.6 21.333s0 21.333 4.267 29.867c17.067 21.333 29.867 42.667 34.133 68.267 4.267 17.067-8.533 34.133-17.067 38.4-68.267 72.533-106.667 162.133-106.667 256 0 213.333 187.733 384 418.133 384s418.133-170.667 418.133-384c0-213.333-187.733-384-418.133-384-34.133 0-68.267 4.267-102.4 12.8-46.933-29.867-98.133-46.933-153.6-46.933 0 0 0 0 0 0zM512 746.667c-192 0-354.133-145.067-354.133-320 0-76.8 29.867-153.6 89.6-213.333 29.867-29.867 42.667-68.267 34.133-98.133-4.267-12.8-8.533-25.6-12.8-38.4 42.667 0 81.067 17.067 119.467 38.4 8.533 4.267 17.067 8.533 25.6 4.267 34.133-8.533 68.267-12.8 102.4-12.8 192 0 354.133 145.067 354.133 320s-166.4 320-358.4 320z" />
<glyph unicode="&#xe905;" glyph-name="check" d="M448 106.667c-8.533 0-17.067 4.267-21.333 8.533l-256 256c-12.8 12.8-12.8 34.133 0 46.933s34.133 12.8 46.933 0l230.4-230.4 362.667 541.867c8.533 12.8 29.867 17.067 42.667 8.533s17.067-29.867 8.533-42.667l-384-576c-8.533-8.533-17.067-12.8-29.867-12.8 0 0 0 0 0 0z" />
<glyph unicode="&#xe906;" glyph-name="clipboard" d="M128 8.534c-17.067 0-34.133 12.8-34.133 34.133v256c0 0 0 0 0 0v448c0 0 0 0 0 0v64c0 17.067 12.8 34.133 34.133 34.133s34.133-17.067 34.133-34.133v-21.333l76.8 21.333c98.133 25.6 196.267 12.8 285.867-29.867l4.267-4.267c72.533-38.4 157.867-51.2 238.933-29.867l132.267 29.867c8.533 4.267 21.333 0 29.867-8.533 8.533-4.267 12.8-17.067 8.533-25.6-17.067-145.067-17.067-294.4 0-439.467 0-17.067-8.533-29.867-25.6-34.133l-132.267-29.867c-93.867-21.333-196.267-8.533-281.6 34.133l-4.267 4.267c-72.533 29.867-157.867 38.4-238.933 21.333l-93.867-25.6v-230.4c0-17.067-17.067-34.133-34.133-34.133zM337.067 371.2c64 0 128-12.8 187.733-42.667l4.267-4.267c72.533-38.4 157.867-46.933 238.933-29.867l106.667 25.6c-12.8 128-12.8 256 0 384l-93.867-21.333c-93.867-21.333-196.267-8.533-281.6 34.133l-4.267 4.267c-72.533 34.133-157.867 42.667-238.933 25.6l-93.867-25.6v-384l76.8 21.333c34.133 8.533 68.267 12.8 98.133 12.8z" />
<glyph unicode="&#xe907;" glyph-name="clipboard-document-check" d="M622.933-21.333h-413.867c-42.667 0-81.067 34.133-81.067 81.067v477.867c0 42.667 34.133 81.067 81.067 81.067h110.933v59.733c0 64 46.933 119.467 115.2 123.733 8.533 0 17.067 0 29.867 4.267 8.533 17.067 21.333 34.133 38.4 42.667 21.333 17.067 46.933 25.6 76.8 25.6h59.733c46.933 0 93.867-25.6 115.2-68.267 8.533 0 17.067 0 29.867-4.267 64-4.267 110.933-59.733 110.933-123.733v-443.733c0-34.133-12.8-68.267-38.4-89.6s-55.467-38.4-89.6-38.4h-64v-46.933c0-46.933-34.133-81.067-81.067-81.067zM209.067 554.667c-8.533 0-17.067-8.533-17.067-17.067v-482.133c0-8.533 8.533-17.067 17.067-17.067h418.133c8.533 0 17.067 8.533 17.067 17.067v482.133c-4.267 8.533-12.8 17.067-21.333 17.067h-413.867zM704 170.667h64c17.067 0 34.133 8.533 46.933 17.067s17.067 29.867 17.067 46.933v443.733c0 34.133-25.6 59.733-55.467 59.733-4.267 0-4.267 0-8.533 0 0-12.8-8.533-29.867-17.067-38.4-12.8-8.533-29.867-17.067-46.933-17.067h-192c-34.133 0-59.733 25.6-64 59.733-4.267 0-4.267 0-8.533 0-29.867-4.267-55.467-29.867-55.467-64v-59.733h238.933c42.667 0 81.067-34.133 81.067-81.067v-366.933zM516.267 763.734c-4.267-4.267-4.267-12.8-4.267-17.067h192c0 4.267 0 12.8-4.267 17.067 0 0 0 0 0 0-8.533 25.6-34.133 42.667-59.733 42.667h-64c-12.8 0-25.6-4.267-38.4-12.8-8.533-4.267-17.067-12.8-21.333-29.867 0 0 0 0 0 0zM384 170.667c-8.533 0-17.067 4.267-21.333 8.533l-64 64c-12.8 12.8-12.8 34.133 0 46.933s34.133 12.8 46.933 0l38.4-38.4 106.667 132.267c12.8 12.8 29.867 17.067 46.933 4.267 12.8-12.8 17.067-29.867 4.267-46.933l-128-162.133c-8.533-4.267-17.067-8.533-29.867-8.533 0 0 0 0 0 0z" />
<glyph unicode="&#xe908;" glyph-name="cog-6-tooth" d="M567.467 8.534h-110.933c-38.4 0-72.533 29.867-81.067 68.267l-8.533 55.467c0 4.267-4.267 12.8-12.8 12.8-4.267 0-8.533 4.267-8.533 4.267-4.267 4.267-12.8 4.267-17.067 4.267l-51.2-21.333c-17.067-8.533-38.4-8.533-55.467 0-17.067 4.267-34.133 17.067-42.667 34.133l-55.467 93.867c-8.533 17.067-12.8 34.133-8.533 55.467 4.267 25.6 12.8 42.667 25.6 51.2l42.667 34.133c4.267 4.267 8.533 8.533 8.533 17.067v12.8c0 8.533-4.267 12.8-8.533 17.067l-42.667 34.133c-12.8 12.8-21.333 29.867-25.6 51.2-4.267 17.067 0 38.4 8.533 55.467l55.467 93.867c8.533 17.067 25.6 29.867 42.667 34.133 17.067 8.533 38.4 8.533 55.467 0l51.2-21.333c4.267 0 12.8 0 17.067 4.267l8.533 4.267c8.533 4.267 12.8 8.533 12.8 12.8l8.533 55.467c8.533 42.667 42.667 68.267 81.067 68.267h110.933c38.4 0 72.533-29.867 81.067-68.267l8.533-55.467c0-4.267 4.267-12.8 12.8-12.8 4.267 0 8.533-4.267 8.533-4.267 4.267-4.267 12.8-4.267 17.067-4.267l51.2 21.333c17.067 8.533 38.4 8.533 55.467 0 17.067-4.267 34.133-17.067 42.667-34.133l55.467-93.867c8.533-17.067 12.8-34.133 8.533-55.467-4.267-17.067-12.8-34.133-29.867-46.933l-42.667-34.133c-4.267-4.267-8.533-8.533-8.533-17.067v-12.8c0-8.533 4.267-12.8 8.533-17.067l42.667-34.133c29.867-25.6 38.4-68.267 17.067-102.4l-51.2-98.133c-8.533-17.067-25.6-29.867-42.667-34.133s-38.4-4.267-55.467 0l-51.2 21.333c-4.267 0-12.8 0-17.067-4.267-4.267 0-8.533-4.267-8.533-4.267-4.267-4.267-8.533-8.533-12.8-12.8l-8.533-55.467c-8.533-42.667-42.667-72.533-81.067-72.533zM332.8 221.867c17.067 0 29.867-4.267 46.933-12.8l8.533-4.267c25.6-12.8 38.4-34.133 42.667-59.733l8.533-55.467c0-8.533 8.533-12.8 17.067-12.8h110.933c8.533 0 12.8 4.267 17.067 12.8l8.533 55.467c4.267 25.6 21.333 46.933 42.667 59.733l8.533 4.267c21.333 12.8 51.2 17.067 72.533 8.533l51.2-21.333c4.267 0 8.533 0 12.8 0s8.533 4.267 8.533 8.533l55.467 93.867c4.267 8.533 4.267 17.067-4.267 21.333l-42.667 34.133c-21.333 17.067-29.867 42.667-29.867 68.267v8.533c0 25.6 8.533 51.2 29.867 68.267l42.667 34.133c4.267 4.267 4.267 4.267 4.267 8.533s0 8.533 0 12.8l-55.467 93.867c0 4.267-4.267 4.267-8.533 8.533-4.267 0-8.533 0-12.8 0l-51.2-17.067c-25.6-8.533-51.2-4.267-72.533 8.533-4.267 0-4.267 4.267-8.533 4.267-25.6 12.8-38.4 34.133-42.667 59.733l-8.533 55.467c0 8.533-8.533 12.8-17.067 12.8h-110.933c-8.533 0-12.8-4.267-17.067-12.8 0 0 0 0 0 0l-8.533-55.467c-4.267-25.6-21.333-46.933-42.667-59.733l-8.533-8.533c-21.333-12.8-51.2-17.067-72.533-4.267l-51.2 17.067c-4.267 0-8.533 0-12.8 0s-8.533-4.267-8.533-8.533l-55.467-93.867c0-4.267-4.267-8.533 0-12.8 0-4.267 4.267-8.533 4.267-8.533l42.667-34.133c21.333-17.067 29.867-42.667 29.867-68.267v-8.533c0-25.6-8.533-51.2-29.867-68.267l-42.667-34.133c-4.267-4.267-4.267-4.267-4.267-8.533s0-8.533 0-12.8l55.467-93.867c0-4.267 4.267-4.267 8.533-8.533 4.267 0 8.533 0 12.8 0l51.2 17.067c8.533 4.267 17.067 8.533 25.6 8.533zM409.6 772.267v0 0zM512 264.534c-42.667 0-81.067 17.067-115.2 46.933s-42.667 72.533-42.667 115.2 17.067 81.067 46.933 115.2c59.733 59.733 166.4 59.733 226.133 0 29.867-29.867 46.933-68.267 46.933-115.2 0-42.667-17.067-81.067-46.933-115.2s-72.533-46.933-115.2-46.933zM512 520.534c-25.6 0-51.2-8.533-68.267-29.867-17.067-17.067-29.867-42.667-29.867-68.267s8.533-51.2 29.867-68.267c34.133-34.133 98.133-34.133 136.533 0 17.067 17.067 29.867 42.667 29.867 68.267s-8.533 51.2-29.867 68.267c-17.067 21.333-42.667 29.867-68.267 29.867z" />
<glyph unicode="&#xe909;" glyph-name="document-check" d="M785.067-21.333h-546.133c-42.667 0-81.067 34.133-81.067 81.067v733.867c0 42.667 34.133 81.067 81.067 81.067h209.067c110.933 0 217.6-42.667 294.4-123.733 76.8-76.8 123.733-183.467 123.733-294.4v-401.067c0-42.667-38.4-76.8-81.067-76.8zM238.933 810.667c-8.533 0-12.8-8.533-12.8-17.067v-738.133c0-8.533 8.533-17.067 17.067-17.067h546.133c8.533 0 17.067 8.533 17.067 17.067v384c0 29.867-12.8 59.733-34.133 81.067-25.6 21.333-55.467 34.133-85.333 34.133h-64c-42.667 0-81.067 34.133-81.067 81.067v64c0 29.867-12.8 59.733-34.133 81.067-17.067 17.067-46.933 29.867-76.8 29.867h-192zM588.8 780.8c12.8-25.6 21.333-55.467 21.333-85.333v-64c0-8.533 8.533-17.067 17.067-17.067h64c29.867 0 59.733-8.533 85.333-21.333-17.067 38.4-42.667 76.8-76.8 110.933s-72.533 59.733-110.933 76.8zM482.133 170.667c-8.533 0-17.067 4.267-21.333 8.533l-98.133 98.133c-12.8 12.8-12.8 34.133 0 46.933s34.133 12.8 46.933 0l68.267-68.267 136.533 192c8.533 12.8 29.867 17.067 42.667 8.533s17.067-29.867 8.533-42.667l-162.133-221.867c-4.267-17.067-12.8-21.333-21.333-21.333 0 0 0 0 0 0z" />
<glyph unicode="&#xe90a;" glyph-name="envelope" d="M832 72.534h-640c-34.133 0-68.267 12.8-89.6 38.4-25.6 25.6-38.4 55.467-38.4 89.6v448c0 34.133 12.8 68.267 38.4 89.6 25.6 25.6 55.467 38.4 89.6 38.4h640c34.133 0 68.267-12.8 89.6-38.4 25.6-25.6 38.4-55.467 38.4-89.6v-448c0-34.133-12.8-68.267-38.4-89.6s-55.467-38.4-89.6-38.4zM128 529.067v-328.533c0-17.067 8.533-34.133 17.067-46.933 12.8-12.8 29.867-17.067 46.933-17.067h640c17.067 0 34.133 8.533 46.933 17.067s17.067 29.867 17.067 46.933v328.533l-315.733-196.267c-38.4-25.6-93.867-25.6-132.267 0l-320 196.267zM128 640c0-12.8 4.267-21.333 8.533-29.867s12.8-17.067 21.333-21.333l320-196.267c21.333-12.8 46.933-12.8 68.267 0l320 196.267c8.533 4.267 17.067 12.8 21.333 21.333s8.533 21.333 8.533 29.867v8.533c0 17.067-8.533 34.133-17.067 46.933s-29.867 17.067-46.933 17.067h-640c-17.067 0-34.133-8.533-46.933-17.067-8.533-12.8-17.067-25.6-17.067-46.933v-8.533z" />
<glyph unicode="&#xe90b;" glyph-name="flag" d="M128 8.534c-17.067 0-34.133 12.8-34.133 34.133v256c0 0 0 0 0 0v448c0 0 0 0 0 0v64c0 17.067 12.8 34.133 34.133 34.133s34.133-17.067 34.133-34.133v-21.333l76.8 21.333c98.133 25.6 196.267 12.8 285.867-29.867l4.267-4.267c72.533-38.4 157.867-51.2 238.933-29.867l132.267 29.867c8.533 4.267 21.333 0 29.867-8.533 8.533-4.267 12.8-17.067 8.533-25.6-17.067-145.067-17.067-294.4 0-439.467 0-17.067-8.533-29.867-25.6-34.133l-132.267-29.867c-93.867-21.333-196.267-8.533-281.6 34.133l-4.267 4.267c-72.533 29.867-157.867 38.4-238.933 21.333l-93.867-25.6v-230.4c0-17.067-17.067-34.133-34.133-34.133zM337.067 371.2c64 0 128-12.8 187.733-42.667l4.267-4.267c72.533-38.4 157.867-46.933 238.933-29.867l106.667 25.6c-12.8 128-12.8 256 0 384l-93.867-21.333c-93.867-21.333-196.267-8.533-281.6 34.133l-4.267 4.267c-72.533 34.133-157.867 42.667-238.933 25.6l-93.867-25.6v-384l76.8 21.333c34.133 8.533 68.267 12.8 98.133 12.8z" />
<glyph unicode="&#xe90c;" glyph-name="Home" d="M785.067 8.534h-546.133c-42.667 0-81.067 34.133-81.067 81.067v354.133l-42.667-42.667c-12.8-12.8-34.133-12.8-46.933 0s-12.8 34.133 0 46.933l384 384c29.867 29.867 81.067 29.867 115.2 0l285.867-285.867c0 0 0 0 0 0l98.133-93.867c12.8-12.8 12.8-34.133 0-46.933s-34.133-12.8-46.933 0l-42.667 42.667v-354.133c4.267-46.933-34.133-85.333-76.8-85.333zM704 72.534h81.067c8.533 0 17.067 8.533 17.067 17.067v418.133l-277.333 277.333c-4.267 4.267-17.067 4.267-21.333 0l-277.333-277.333v-418.133c0-8.533 8.533-17.067 17.067-17.067h140.8v174.933c0 42.667 34.133 81.067 81.067 81.067h98.133c42.667 0 81.067-34.133 81.067-81.067v-174.933h59.733zM448 72.534h128v174.933c0 8.533-8.533 17.067-17.067 17.067h-98.133c-8.533 0-17.067-8.533-17.067-17.067v-174.933z" />
<glyph unicode="&#xe90d;" glyph-name="moon" d="M546.133 8.534c-247.467 0-448 204.8-448 448 0 89.6 25.6 174.933 76.8 247.467s119.467 132.267 200.533 166.4c8.533 8.533 21.333 4.267 29.867-4.267s12.8-21.333 8.533-34.133c-21.333-46.933-29.867-98.133-29.867-149.333 0-213.333 170.667-384 384-384 51.2 0 102.4 8.533 149.333 29.867 12.8 4.267 25.6 4.267 34.133-8.533 8.533-8.533 12.8-21.333 8.533-34.133-34.133-81.067-89.6-149.333-166.4-200.533-76.8-46.933-162.133-76.8-247.467-76.8zM328.533 776.534c-42.667-29.867-76.8-64-106.667-106.667-42.667-64-64-136.533-64-213.333 0-213.333 170.667-384 384-384 76.8 0 149.333 21.333 213.333 64 42.667 29.867 76.8 64 106.667 106.667-29.867-8.533-64-8.533-93.867-8.533-247.467 0-448 200.533-448 448 0 34.133 4.267 64 8.533 93.867z" />
<glyph unicode="&#xe90e;" glyph-name="pencil-square" d="M674.133 8.534h-448c-34.133 0-68.267 12.8-89.6 38.4-25.6 25.6-38.4 55.467-38.4 89.6v448c0 34.133 12.8 68.267 38.4 89.6 25.6 25.6 55.467 38.4 89.6 38.4h200.533c17.067 0 34.133-12.8 34.133-34.133s-17.067-29.867-34.133-29.867h-200.533c-17.067 0-34.133-8.533-46.933-17.067-12.8-12.8-17.067-25.6-17.067-46.933v-448c0-17.067 8.533-34.133 17.067-46.933 12.8-12.8 29.867-17.067 46.933-17.067h448c17.067 0 34.133 8.533 46.933 17.067s17.067 29.867 17.067 46.933v204.8c0 17.067 12.8 34.133 34.133 34.133s34.133-12.8 34.133-34.133v-204.8c0-34.133-12.8-68.267-38.4-89.6s-59.733-38.4-93.867-38.4zM256 136.534c-8.533 0-17.067 4.267-21.333 8.533-8.533 8.533-12.8 21.333-8.533 29.867l34.133 115.2c8.533 34.133 29.867 68.267 55.467 93.867l452.267 456.533c42.667 42.667 115.2 42.667 157.867 0 21.333-21.333 34.133-51.2 34.133-81.067s-12.8-59.733-34.133-81.067l-452.267-448c-25.6-25.6-59.733-46.933-93.867-55.467l-115.2-34.133c-4.267 0-4.267-4.267-8.533-4.267zM721.067 704l-358.4-358.4c-17.067-17.067-34.133-42.667-38.4-68.267l-17.067-59.733 59.733 17.067c25.6 8.533 46.933 21.333 68.267 38.4l358.4 358.4-72.533 72.533zM763.733 746.667l68.267-68.267 51.2 51.2c8.533 8.533 12.8 21.333 12.8 34.133s-4.267 25.6-12.8 34.133c-17.067 17.067-51.2 17.067-68.267 0l-51.2-51.2z" />
<glyph unicode="&#xe90f;" glyph-name="plus" d="M512 72.534c-17.067 0-34.133 12.8-34.133 34.133v290.133h-285.867c-17.067 0-34.133 12.8-34.133 34.133s12.8 34.133 34.133 34.133h290.133v281.6c0 17.067 12.8 34.133 34.133 34.133s34.133-12.8 34.133-34.133v-290.133h290.133c17.067 0 34.133-12.8 34.133-34.133s-12.8-34.133-34.133-34.133h-290.133v-290.133c-4.267-8.533-21.333-25.6-38.4-25.6z" />
<glyph unicode="&#xe910;" glyph-name="presentation-chart-line" d="M738.133 8.534c-12.8 0-25.6 8.533-29.867 21.333l-12.8 42.667h-362.667l-12.8-42.667c-4.267-17.067-25.6-25.6-38.4-21.333-17.067 4.267-25.6 25.6-21.333 38.4l21.333 64c0 0 0 0 0 0l29.867 85.333h-55.467c-34.133 0-68.267 12.8-89.6 38.4-25.6 29.867-38.4 59.733-38.4 93.867v448h-29.867c-21.333 0-34.133 17.067-34.133 34.133s12.8 34.133 34.133 34.133h832c17.067 0 34.133-12.8 34.133-34.133s-12.8-34.133-34.133-34.133h-34.133v-448c0-34.133-12.8-68.267-38.4-89.6s-55.467-38.4-89.6-38.4h-51.2l29.867-85.333c0 0 0 0 0 0l21.333-64c4.267-17.067-4.267-34.133-21.333-38.4-4.267 0-8.533-4.267-8.533-4.267zM354.133 136.534h315.733l-21.333 64h-273.067l-21.333-64zM674.133 264.534h93.867c17.067 0 34.133 8.533 46.933 17.067s17.067 29.867 17.067 46.933v448h-640v-448c0-17.067 8.533-34.133 17.067-46.933 12.8-12.8 29.867-17.067 46.933-17.067h93.867c0 0 0 0 0 0h324.267c-4.267 0 0 0 0 0zM320 392.534c-8.533 0-17.067 4.267-21.333 8.533-12.8 12.8-12.8 34.133 0 46.933l128 128c12.8 12.8 34.133 12.8 46.933 0l64-64c42.667 51.2 93.867 98.133 153.6 132.267 17.067 8.533 34.133 4.267 42.667-12.8s4.267-34.133-12.8-42.667c-59.733-34.133-115.2-85.333-153.6-140.8-4.267-8.533-12.8-12.8-21.333-12.8s-17.067 4.267-25.6 8.533l-68.267 68.267-110.933-106.667c-4.267-8.533-12.8-12.8-21.333-12.8z" />
<glyph unicode="&#xe911;" glyph-name="question-mark-circle" d="M512 8.534c-55.467 0-106.667 12.8-157.867 29.867-51.2 21.333-98.133 51.2-136.533 89.6s-68.267 85.333-89.6 136.533c-21.333 51.2-29.867 102.4-29.867 157.867 0 110.933 42.667 217.6 123.733 294.4 72.533 81.067 179.2 123.733 290.133 123.733s217.6-42.667 294.4-123.733c76.8-76.8 123.733-183.467 123.733-294.4 0-55.467-12.8-106.667-29.867-157.867-21.333-51.2-51.2-98.133-89.6-136.533s-85.333-68.267-136.533-89.6-106.667-29.867-162.133-29.867zM512 776.534c-93.867 0-183.467-38.4-247.467-102.4s-102.4-153.6-102.4-247.467c0-46.933 8.533-93.867 25.6-136.533s42.667-81.067 76.8-115.2c34.133-34.133 72.533-59.733 115.2-76.8 85.333-34.133 183.467-34.133 268.8 0 42.667 17.067 81.067 42.667 115.2 76.8s59.733 72.533 76.8 115.2c17.067 42.667 25.6 89.6 25.6 136.533 0 93.867-38.4 183.467-102.4 247.467-68.267 68.267-157.867 102.4-251.733 102.4zM512 170.667c-17.067 0-34.133 12.8-34.133 34.133s12.8 34.133 34.133 34.133v0c17.067 0 34.133-12.8 34.133-34.133s-17.067-34.133-34.133-34.133zM512 298.667c-17.067 0-34.133 12.8-34.133 34.133v34.133c0 42.667 29.867 81.067 81.067 106.667 8.533 4.267 17.067 8.533 21.333 12.8 17.067 17.067 25.6 34.133 25.6 55.467s-8.533 38.4-25.6 51.2c-38.4 34.133-102.4 34.133-140.8 0-8.533-12.8-29.867-8.533-42.667 4.267s-8.533 34.133 4.267 42.667c59.733 55.467 162.133 55.467 221.867 0 29.867-25.6 46.933-64 46.933-102.4s-17.067-76.8-46.933-102.4c-8.533-8.533-21.333-17.067-34.133-25.6-21.333-8.533-42.667-29.867-42.667-51.2v-34.133c0-12.8-17.067-25.6-34.133-25.6z" />
<glyph unicode="&#xe912;" glyph-name="sun" d="M512 8.534c-17.067 0-34.133 12.8-34.133 34.133v98.133c0 17.067 12.8 34.133 34.133 34.133s34.133-12.8 34.133-34.133v-98.133c0-17.067-17.067-34.133-34.133-34.133zM785.067 123.734c-8.533 0-17.067 4.267-21.333 8.533l-68.267 68.267c-12.8 12.8-12.8 34.133 0 46.933s34.133 12.8 46.933 0l68.267-68.267c12.8-12.8 12.8-34.133 0-46.933-12.8-4.267-17.067-8.533-25.6-8.533zM238.933 123.734c-8.533 0-17.067 4.267-21.333 8.533-12.8 12.8-12.8 34.133 0 46.933l68.267 68.267c12.8 8.533 34.133 8.533 46.933 0s12.8-34.133 0-46.933l-68.267-68.267c-8.533-4.267-17.067-8.533-25.6-8.533zM512 234.667c-51.2 0-98.133 21.333-136.533 55.467s-55.467 85.333-55.467 136.533c0 51.2 21.333 98.133 55.467 136.533 38.4 38.4 85.333 55.467 136.533 55.467s98.133-21.333 136.533-55.467c38.4-38.4 55.467-85.333 55.467-136.533s-21.333-98.133-55.467-136.533c-38.4-34.133-85.333-55.467-136.533-55.467zM512 554.667c-34.133 0-68.267-12.8-89.6-38.4-25.6-21.333-38.4-55.467-38.4-89.6s12.8-68.267 38.4-89.6c46.933-46.933 132.267-46.933 179.2 0 25.6 25.6 38.4 55.467 38.4 89.6s-12.8 68.267-38.4 89.6c-21.333 25.6-55.467 38.4-89.6 38.4zM896 392.534h-98.133c-17.067 0-34.133 12.8-34.133 34.133s12.8 34.133 34.133 34.133h98.133c17.067 0 34.133-12.8 34.133-34.133s-17.067-34.133-34.133-34.133zM226.133 392.534h-98.133c-17.067 0-34.133 12.8-34.133 34.133s12.8 34.133 34.133 34.133h98.133c17.067-4.267 29.867-17.067 29.867-34.133s-12.8-34.133-29.867-34.133zM716.8 597.334c-8.533 0-17.067 4.267-21.333 8.533-12.8 12.8-12.8 34.133-4.267 46.933l68.267 68.267c12.8 12.8 34.133 12.8 46.933 0s12.8-34.133 0-46.933l-68.267-68.267c-4.267-4.267-12.8-8.533-21.333-8.533zM307.2 597.334c-8.533 0-17.067 4.267-21.333 8.533l-68.267 68.267c-12.8 12.8-12.8 34.133 0 46.933s34.133 12.8 46.933 0l68.267-68.267c12.8-12.8 12.8-34.133 0-46.933-8.533-4.267-17.067-8.533-25.6-8.533zM512 682.667c-17.067 0-34.133 12.8-34.133 34.133v93.867c0 17.067 12.8 34.133 34.133 34.133s34.133-12.8 34.133-34.133v-98.133c0-17.067-17.067-29.867-34.133-29.867z" />
<glyph unicode="&#xe913;" glyph-name="trash" d="M678.4-21.333h-332.8c-34.133 0-64 12.8-85.333 34.133-25.6 21.333-38.4 51.2-42.667 85.333l-42.667 558.933c-4.267 0-4.267 0-8.533 0-17.067-8.533-34.133 4.267-38.4 21.333s8.533 34.133 25.6 38.4c17.067 0 29.867 4.267 46.933 8.533 0 0 0 0 0 0 38.4 4.267 81.067 12.8 119.467 12.8v8.533c0 68.267 51.2 123.733 119.467 128 46.933 0 98.133 0 145.067 0 68.267 0 119.467-55.467 119.467-128v-8.533c38.4-4.267 81.067-8.533 119.467-12.8 0 0 0 0 0 0 12.8-4.267 29.867-4.267 42.667-8.533 17.067-4.267 29.867-21.333 25.6-38.4s-21.333-29.867-38.4-25.6c-4.267 0-4.267 0-8.533 0l-42.667-558.933c-4.267-34.133-17.067-64-42.667-85.333-17.067-17.067-46.933-29.867-81.067-29.867zM238.933 665.6l42.667-563.2c0-17.067 8.533-29.867 21.333-42.667s25.6-17.067 42.667-17.067h332.8c17.067 0 29.867 4.267 42.667 17.067s17.067 25.6 21.333 42.667l42.667 563.2c-38.4 4.267-76.8 8.533-115.2 12.8 0 0 0 0 0 0-106.667 4.267-209.067 4.267-315.733 0 0 0 0 0 0 0-38.4-4.267-76.8-8.533-115.2-12.8zM512 746.667c42.667 0 85.333 0 128-4.267v4.267c0 34.133-25.6 64-59.733 64-46.933 0-93.867 0-140.8 0-29.867 0-55.467-29.867-55.467-64v-4.267c42.667 4.267 85.333 4.267 128 4.267zM614.4 136.534c0 0 0 0 0 0-17.067 0-34.133 17.067-34.133 34.133l17.067 384c0 17.067 12.8 29.867 29.867 29.867 0 0 0 0 0 0 17.067 0 29.867-17.067 29.867-34.133l-12.8-384c0-12.8-12.8-29.867-29.867-29.867zM409.6 136.534c-17.067 0-29.867 12.8-29.867 29.867l-17.067 388.267c0 17.067 12.8 34.133 29.867 34.133s34.133-17.067 34.133-34.133l12.8-384c4.267-17.067-12.8-29.867-29.867-34.133 0 0 0 0 0 0z" />
<glyph unicode="&#xe914;" glyph-name="user" d="M512-21.333c0 0 0 0 0 0-119.467 0-230.4 25.6-332.8 72.533-12.8 4.267-17.067 17.067-17.067 29.867 0 93.867 38.4 179.2 106.667 243.2 64 68.267 149.333 102.4 243.2 102.4s179.2-34.133 247.467-102.4c68.267-64 102.4-153.6 106.667-243.2 0-12.8-8.533-25.6-17.067-29.867-106.667-46.933-221.867-72.533-337.067-72.533zM226.133 102.4c89.6-38.4 187.733-59.733 285.867-59.733s196.267 21.333 285.867 59.733c-4.267 68.267-34.133 132.267-85.333 179.2-55.467 51.2-128 81.067-200.533 81.067-76.8 0-149.333-29.867-200.533-81.067s-81.067-110.933-85.333-179.2zM512 490.667c-51.2 0-98.133 21.333-136.533 55.467-34.133 38.4-55.467 85.333-55.467 136.533s21.333 98.133 55.467 136.533c38.4 38.4 85.333 55.467 136.533 55.467s98.133-21.333 136.533-55.467c38.4-38.4 55.467-85.333 55.467-136.533s-21.333-98.133-55.467-136.533c-38.4-34.133-85.333-55.467-136.533-55.467zM512 810.667c-34.133 0-68.267-12.8-89.6-38.4-25.6-21.333-38.4-55.467-38.4-89.6s12.8-68.267 38.4-89.6c46.933-46.933 132.267-46.933 179.2 0 25.6 21.333 38.4 55.467 38.4 89.6s-12.8 68.267-38.4 89.6c-21.333 25.6-55.467 38.4-89.6 38.4z" />
<glyph unicode="&#xe915;" glyph-name="user-circle" d="M512 8.534c-102.4 0-200.533 38.4-277.333 106.667 0 0 0 0 0 0-64 55.467-106.667 128-128 213.333-21.333 81.067-12.8 166.4 17.067 247.467 29.867 76.8 81.067 145.067 153.6 192 140.8 98.133 332.8 98.133 473.6 0 68.267-46.933 123.733-115.2 153.6-196.267s34.133-166.4 17.067-247.467c-21.333-81.067-64-153.6-128-213.333 0 0 0 0 0 0-81.067-64-179.2-102.4-281.6-102.4 0 4.267 0 4.267 0 0zM302.933 145.067c59.733-46.933 132.267-68.267 209.067-68.267 0 0 0 0 0 0 76.8 0 149.333 25.6 209.067 68.267-21.333 25.6-51.2 46.933-81.067 59.733-38.4 21.333-85.333 29.867-128 29.867 0 0 0 0 0 0-42.667 0-89.6-8.533-128-29.867-29.867-17.067-59.733-34.133-81.067-59.733zM512 298.667c55.467 0 106.667-12.8 157.867-38.4 38.4-17.067 72.533-42.667 102.4-76.8 42.667 42.667 68.267 98.133 85.333 157.867 17.067 68.267 12.8 140.8-12.8 209.067s-68.267 123.733-128 166.4c-119.467 81.067-281.6 81.067-401.067 0-59.733-42.667-102.4-98.133-128-166.4-29.867-64-34.133-136.533-17.067-209.067 12.8-59.733 42.667-110.933 85.333-157.867 29.867 29.867 64 55.467 102.4 76.8 46.933 25.6 98.133 38.4 153.6 38.4 0 0 0 0 0 0zM512 362.667c-42.667 0-81.067 17.067-115.2 46.933-29.867 29.867-46.933 68.267-46.933 115.2 0 42.667 17.067 81.067 46.933 115.2 59.733 59.733 166.4 59.733 226.133 0 29.867-29.867 46.933-68.267 46.933-115.2s-17.067-81.067-46.933-115.2-68.267-46.933-110.933-46.933zM512 618.667c-25.6 0-51.2-8.533-68.267-29.867-17.067-17.067-29.867-42.667-29.867-68.267s8.533-51.2 29.867-68.267c34.133-38.4 98.133-38.4 136.533 0 17.067 17.067 29.867 42.667 29.867 68.267s-8.533 51.2-29.867 68.267-42.667 29.867-68.267 29.867z" />
<glyph unicode="&#xe916;" glyph-name="user-group" d="M512 8.534c0 0 0 0 0 0-93.867 0-187.733 25.6-273.067 72.533-8.533 4.267-12.8 12.8-17.067 25.6-46.933 0-93.867 8.533-140.8 25.6-12.8 4.267-21.333 17.067-21.333 25.6-4.267 29.867 4.267 59.733 17.067 85.333s34.133 46.933 59.733 64c25.6 17.067 55.467 21.333 85.333 21.333 21.333 0 38.4-4.267 55.467-12.8 25.6 29.867 55.467 55.467 85.333 72.533 42.667 21.333 89.6 34.133 136.533 34.133 0 0 0 0 0 0 46.933 0 98.133-12.8 136.533-34.133 34.133-17.067 64-42.667 85.333-72.533 17.067 8.533 38.4 12.8 55.467 12.8 29.867 0 59.733-4.267 85.333-21.333s46.933-38.4 59.733-64c12.8-25.6 21.333-55.467 17.067-85.333 0-12.8-8.533-21.333-21.333-25.6-46.933-17.067-93.867-25.6-140.8-25.6 0 0 0 0 0 0 0-8.533-8.533-17.067-17.067-25.6-59.733-46.933-153.6-72.533-247.467-72.533zM290.133 128c68.267-34.133 145.067-55.467 221.867-55.467 0 0 0 0 0 0 76.8 0 153.6 17.067 221.867 55.467 0 4.267 0 4.267 0 8.533 0 0 0 0 0 0s0 0 0 0c0 42.667-12.8 85.333-34.133 119.467-21.333 29.867-46.933 59.733-81.067 76.8s-68.267 25.6-106.667 25.6c0 0 0 0 0 0-38.4 0-76.8-8.533-106.667-25.6s-59.733-42.667-81.067-76.8c0 0 0 0 0 0-21.333-34.133-34.133-76.8-34.133-119.467 0 0 0 0 0 0s0-4.267 0-8.533zM128 183.467c34.133-8.533 64-12.8 98.133-12.8 4.267 29.867 12.8 64 25.6 93.867-8.533 4.267-17.067 4.267-25.6 4.267-17.067 0-34.133-4.267-51.2-12.8s-29.867-21.333-38.4-38.4c-4.267-12.8-4.267-21.333-8.533-34.133zM797.867 170.667c34.133 0 64 4.267 98.133 12.8 0 12.8-4.267 21.333-8.533 29.867-8.533 17.067-21.333 29.867-38.4 38.4s-34.133 12.8-51.2 12.8c-8.533 0-17.067 0-25.6-4.267 12.8-25.6 21.333-59.733 25.6-89.6zM802.133 392.534c-17.067 0-34.133 4.267-46.933 8.533-17.067 8.533-29.867 17.067-42.667 29.867s-21.333 25.6-29.867 42.667c-8.533 17.067-8.533 34.133-8.533 46.933 0 34.133 12.8 68.267 38.4 89.6 46.933 46.933 132.267 46.933 179.2 0 25.6-25.6 38.4-55.467 38.4-89.6 0-17.067-4.267-34.133-8.533-46.933-8.533-17.067-17.067-29.867-29.867-42.667s-25.6-21.333-42.667-25.6c-17.067-8.533-34.133-12.8-46.933-12.8zM802.133 584.534c-17.067 0-34.133-8.533-46.933-17.067-12.8-12.8-17.067-29.867-17.067-46.933 0-8.533 0-17.067 4.267-25.6s8.533-12.8 12.8-21.333c4.267-4.267 12.8-12.8 21.333-12.8 17.067-8.533 34.133-8.533 46.933 0 8.533 4.267 12.8 8.533 21.333 12.8s12.8 12.8 12.8 21.333c4.267 8.533 4.267 17.067 4.267 25.6 0 17.067-8.533 34.133-17.067 46.933s-25.6 17.067-42.667 17.067zM226.133 392.534c-17.067 0-34.133 4.267-46.933 8.533-17.067 8.533-29.867 17.067-42.667 29.867s-21.333 25.6-29.867 42.667c-8.533 17.067-8.533 34.133-8.533 46.933 0 34.133 12.8 68.267 38.4 89.6 46.933 46.933 132.267 46.933 179.2 0 25.6-25.6 38.4-55.467 38.4-89.6 0-17.067-4.267-34.133-8.533-46.933s-17.067-29.867-29.867-42.667c-12.8-12.8-25.6-21.333-42.667-29.867-17.067-4.267-34.133-8.533-46.933-8.533zM226.133 584.534c-17.067 0-34.133-8.533-46.933-17.067-12.8-12.8-17.067-25.6-17.067-46.933 0-8.533 0-17.067 4.267-25.6s8.533-12.8 12.8-21.333c4.267-4.267 12.8-12.8 21.333-12.8 17.067-8.533 34.133-8.533 46.933 0 8.533 4.267 17.067 8.533 21.333 17.067 4.267 4.267 8.533 12.8 12.8 21.333s4.267 17.067 4.267 25.6-8.533 34.133-17.067 46.933c-12.8 8.533-25.6 12.8-42.667 12.8zM512 490.667c-42.667 0-81.067 17.067-115.2 46.933-29.867 29.867-42.667 68.267-42.667 110.933s17.067 81.067 46.933 115.2c59.733 59.733 166.4 59.733 226.133 0 29.867-29.867 46.933-68.267 46.933-115.2s-17.067-81.067-46.933-115.2-72.533-42.667-115.2-42.667zM512 746.667c-25.6 0-51.2-8.533-68.267-29.867-17.067-17.067-29.867-42.667-29.867-68.267s8.533-51.2 29.867-68.267c34.133-38.4 98.133-38.4 136.533 0 17.067 17.067 29.867 42.667 29.867 68.267s-12.8 51.2-29.867 68.267c-17.067 21.333-42.667 29.867-68.267 29.867z" />
<glyph unicode="&#xe917;" glyph-name="x-mark" d="M768 136.534c-8.533 0-17.067 4.267-21.333 8.533l-234.667 234.667-234.667-234.667c-12.8-12.8-34.133-12.8-46.933 0s-12.8 34.133 0 46.933l234.667 234.667-230.4 234.667c-12.8 12.8-12.8 34.133 0 46.933s34.133 12.8 46.933 0l234.667-234.667 234.667 234.667c12.8 12.8 34.133 12.8 46.933 0s12.8-34.133 0-46.933l-238.933-234.667 234.667-234.667c12.8-12.8 12.8-34.133 0-46.933-8.533-4.267-17.067-8.533-25.6-8.533z" />
<glyph unicode="&#xe918;" glyph-name="arrow-long-down" d="M512 8.534c-4.267 0-8.533 0-12.8 4.267-4.267 0-8.533 4.267-8.533 8.533l-162.133 162.133c-12.8 12.8-12.8 34.133 0 46.933s34.133 12.8 46.933 0l106.667-106.667v686.933c0 17.067 12.8 34.133 34.133 34.133s34.133-12.8 34.133-34.133v-691.2l106.667 106.667c12.8 12.8 34.133 12.8 46.933 0s12.8-34.133 0-46.933l-162.133-162.133c-4.267-4.267-8.533-4.267-8.533-8.533-12.8 4.267-17.067 0-21.333 0z" />
<glyph unicode="&#xe919;" glyph-name="arrow-long-left" d="M290.133 234.667c-8.533 0-17.067 4.267-21.333 8.533l-162.133 162.133c-4.267 4.267-4.267 8.533-8.533 8.533 0 4.267-4.267 8.533-4.267 12.8s0 8.533 4.267 12.8c0 4.267 4.267 8.533 8.533 8.533l162.133 162.133c12.8 12.8 34.133 12.8 46.933 0s12.8-34.133 0-46.933l-106.667-106.667h686.933c17.067 0 34.133-12.8 34.133-34.133s-12.8-34.133-34.133-34.133h-691.2l106.667-106.667c12.8-12.8 12.8-34.133 0-46.933-8.533 4.267-17.067 0-21.333 0z" />
<glyph unicode="&#xe91a;" glyph-name="arrow-long-right" d="M738.133 234.667c-8.533 0-17.067 4.267-21.333 8.533-12.8 12.8-12.8 34.133 0 46.933l106.667 106.667h-695.467c-17.067 0-34.133 12.8-34.133 34.133s12.8 34.133 34.133 34.133h691.2l-106.667 106.667c-12.8 12.8-12.8 34.133 0 46.933s34.133 12.8 46.933 0l162.133-162.133c4.267-4.267 4.267-8.533 8.533-8.533 0-4.267 4.267-8.533 4.267-12.8s0-8.533-4.267-12.8c0-4.267-4.267-8.533-8.533-8.533l-162.133-162.133c-8.533-12.8-17.067-17.067-21.333-17.067z" />
<glyph unicode="&#xe91b;" glyph-name="arrow-long-up" d="M512 8.534c-17.067 0-34.133 12.8-34.133 34.133v691.2l-102.4-106.667c-12.8-12.8-34.133-12.8-46.933 0s-12.8 34.133 0 46.933l162.133 162.133c4.267 4.267 8.533 4.267 8.533 8.533 8.533 4.267 17.067 4.267 25.6 0 4.267 0 8.533-4.267 8.533-8.533l162.133-162.133c12.8-12.8 12.8-34.133 0-46.933s-34.133-12.8-46.933 0l-106.667 106.667v-691.2c4.267-17.067-12.8-34.133-29.867-34.133z" />
<glyph unicode="&#xe91c;" glyph-name="chevron-down" d="M512 234.667c-8.533 0-17.067 4.267-21.333 8.533l-320 320c-12.8 12.8-12.8 34.133 0 46.933s34.133 12.8 46.933 0l298.667-298.667 298.667 298.667c12.8 12.8 34.133 12.8 46.933 0s12.8-34.133 0-46.933l-320-320c-12.8-4.267-21.333-8.533-29.867-8.533z" />
<glyph unicode="&#xe91d;" glyph-name="chevron-left" d="M674.133 72.534c-8.533 0-17.067 4.267-21.333 8.533l-320 320c-12.8 12.8-12.8 34.133 0 46.933l315.733 320c12.8 12.8 34.133 12.8 46.933 0s12.8-34.133 0-46.933l-298.667-298.667 298.667-298.667c12.8-12.8 12.8-34.133 0-46.933-8.533 0-17.067-4.267-21.333-4.267z" />
<glyph unicode="&#xe91e;" glyph-name="chevron-right" d="M354.133 72.534c-8.533 0-17.067 4.267-21.333 8.533-12.8 12.8-12.8 34.133 0 46.933l298.667 298.667-298.667 298.667c-17.067 12.8-17.067 29.867-4.267 42.667s34.133 12.8 46.933 0l320-320c12.8-12.8 12.8-34.133 0-46.933l-320-315.733c-8.533-8.533-17.067-12.8-21.333-12.8z" />
<glyph unicode="&#xe91f;" glyph-name="chevron-up" d="M832 234.667c-8.533 0-17.067 4.267-21.333 8.533l-298.667 298.667-298.667-298.667c-12.8-12.8-34.133-12.8-46.933 0s-12.8 34.133 0 46.933l320 320c12.8 12.8 34.133 12.8 46.933 0l320-320c12.8-12.8 12.8-34.133 0-46.933-4.267-4.267-12.8-8.533-21.333-8.533z" />
<glyph unicode="&#xe920;" glyph-name="minus" d="M810.667 392.534h-597.333c-17.067 0-34.133 12.8-34.133 34.133s12.8 34.133 34.133 34.133h597.333c17.067 0 34.133-12.8 34.133-34.133s-17.067-34.133-34.133-34.133z" />
<glyph unicode="&#xe921;" glyph-name="solid-moon" d="M406.528 865.366c4.485-4.484 7.537-10.199 8.768-16.421s0.585-12.669-1.856-18.523c-19.506-46.814-29.513-97.039-29.44-147.755 0-101.843 40.457-199.514 112.469-271.527 72.017-72.017 169.69-112.474 271.531-112.474 50.714-0.073 100.941 9.933 147.755 29.44 5.85 2.436 12.292 3.081 18.509 1.852s11.925-4.275 16.41-8.751c4.484-4.48 7.535-10.189 8.772-16.405 1.233-6.212 0.597-12.655-1.835-18.509-34.048-81.63-91.49-151.364-165.090-200.41-73.604-49.050-160.073-75.221-248.521-75.217-247.424 0-448 200.533-448 448 0 186.368 113.792 346.112 275.627 413.611 5.848 2.431 12.287 3.072 18.5 1.842s11.921-4.277 16.401-8.754z" />
<glyph unicode="&#xe922;" glyph-name="solid-sun" d="M512 840.534c8.533 0 17.067-4.267 21.333-8.533s8.533-12.8 8.533-21.333v-98.133c0-8.533-4.267-17.067-8.533-21.333s-12.8-8.533-21.333-8.533-17.067 4.267-21.333 8.533c-4.267 4.267-8.533 12.8-8.533 21.333v98.133c0 8.533 4.267 17.067 8.533 21.333 4.267 8.533 12.8 8.533 21.333 8.533zM320 426.667c0 51.2 21.333 98.133 55.467 136.533s85.333 55.467 136.533 55.467 98.133-21.333 136.533-55.467 55.467-85.333 55.467-136.533-21.333-98.133-55.467-136.533-85.333-55.467-136.533-55.467-98.133 21.333-136.533 55.467-55.467 85.333-55.467 136.533zM806.4 674.134c4.267 8.533 8.533 17.067 8.533 25.6s-4.267 17.067-8.533 21.333c-4.267 4.267-12.8 8.533-21.333 8.533s-17.067-4.267-21.333-8.533l-68.267-68.267c-4.267-4.267-4.267-8.533-8.533-8.533-4.267-4.267-4.267-8.533-4.267-12.8s0-8.533 4.267-12.8c0-4.267 4.267-8.533 8.533-8.533s8.533-4.267 8.533-8.533c4.267-4.267 8.533-4.267 12.8-4.267s8.533 0 12.8 4.267 8.533 4.267 8.533 8.533l68.267 64zM930.133 426.667c0-8.533-4.267-17.067-8.533-21.333s-12.8-8.533-21.333-8.533h-98.133c-8.533 0-17.067 4.267-21.333 8.533-8.533 4.267-12.8 12.8-12.8 21.333s4.267 17.067 8.533 21.333c4.267 4.267 12.8 8.533 21.333 8.533h98.133c8.533 0 17.067-4.267 21.333-8.533 8.533-4.267 12.8-12.8 12.8-21.333zM759.467 132.267c4.267-4.267 12.8-8.533 21.333-8.533s17.067 4.267 21.333 8.533c4.267 4.267 8.533 12.8 8.533 21.333s-4.267 17.067-8.533 21.333l-68.267 68.267c-4.267 4.267-8.533 4.267-8.533 8.533s-4.267 4.267-8.533 4.267c-4.267 0-8.533 0-12.8-4.267-4.267 0-8.533-4.267-8.533-8.533-4.267-4.267-4.267-8.533-8.533-8.533 0-4.267-4.267-8.533-4.267-12.8s0-8.533 4.267-12.8c0-4.267 4.267-8.533 8.533-8.533l64-68.267zM512 170.667c8.533 0 17.067-4.267 21.333-8.533s8.533-12.8 8.533-21.333v-98.133c0-8.533-4.267-17.067-8.533-21.333s-12.8-8.533-21.333-8.533-17.067 4.267-21.333 8.533c-4.267 4.267-8.533 12.8-8.533 21.333v98.133c0 8.533 4.267 17.067 8.533 21.333s12.8 8.533 21.333 8.533zM332.8 200.534c4.267 4.267 8.533 12.8 8.533 21.333s-4.267 17.067-8.533 21.333c-8.533 8.533-17.067 12.8-25.6 12.8s-17.067-4.267-21.333-8.533l-68.267-68.267c-4.267-8.533-8.533-17.067-8.533-25.6s4.267-17.067 8.533-21.333c4.267-4.267 12.8-8.533 21.333-8.533s17.067 4.267 21.333 8.533l72.533 68.267zM256 426.667c0-8.533-4.267-17.067-8.533-21.333s-12.8-8.533-21.333-8.533h-98.133c-8.533 0-17.067 4.267-21.333 8.533s-8.533 12.8-8.533 21.333 4.267 17.067 8.533 21.333c4.267 4.267 12.8 8.533 21.333 8.533h98.133c8.533 0 17.067-4.267 21.333-8.533s8.533-12.8 8.533-21.333zM285.867 605.867c4.267-4.267 12.8-8.533 21.333-8.533s17.067 4.267 21.333 8.533c8.533 8.533 12.8 17.067 12.8 25.6s-4.267 17.067-8.533 21.333l-68.267 68.267c-8.533 4.267-17.067 8.533-25.6 8.533s-12.8-4.267-21.333-8.533c-4.267-8.533-8.533-12.8-8.533-21.333s4.267-17.067 8.533-25.6l68.267-68.267z" />
<glyph unicode="&#xe923;" glyph-name="solid-pencil-square" d="M927.189 841.849c-21.005 21-49.489 32.797-79.189 32.797s-58.185-11.797-79.189-32.797l-49.365-49.365 158.379-158.379 49.365 49.365c21.001 21.004 32.798 49.488 32.798 79.189s-11.797 58.186-32.798 79.189zM832.555 588.835l-158.379 158.379-358.4-358.401c-26.332-26.317-45.689-58.786-56.32-94.464l-34.133-114.56c-1.648-5.525-1.771-11.396-0.356-16.99s4.316-10.701 8.395-14.78c4.079-4.079 9.185-6.976 14.777-8.393s11.464-1.293 16.992 0.354l114.56 34.133c35.679 10.633 68.147 29.99 94.464 56.32l358.4 358.401zM224 714.667c-33.948 0-66.505-13.486-90.51-37.49s-37.49-56.562-37.49-90.51v-448c0-33.946 13.486-66.505 37.49-90.509s56.562-37.491 90.51-37.491h448c33.946 0 66.505 13.487 90.509 37.491s37.491 56.563 37.491 90.509v224c0 8.486-3.371 16.627-9.374 22.626-5.999 6.003-14.14 9.374-22.626 9.374s-16.627-3.371-22.626-9.374c-6.003-5.999-9.374-14.14-9.374-22.626v-224c0-16.973-6.741-33.254-18.743-45.257s-28.284-18.743-45.257-18.743h-448c-16.974 0-33.253 6.741-45.255 18.743s-18.745 28.284-18.745 45.257v448c0 16.974 6.743 33.253 18.745 45.255s28.281 18.745 45.255 18.745h224c8.486 0 16.627 3.372 22.626 9.373 6.003 6.001 9.374 14.141 9.374 22.627s-3.371 16.626-9.374 22.627c-5.999 6.001-14.14 9.373-22.626 9.373h-224z" />
</font>
</defs>
</svg>
